#!OML:ASF F:\VICON\USERDATA\INSTALL\rory3\rory3.ASF
:FULLY-SPECIFIED
:DEGREES
55
root 0.6440236928794992 18.27561471274763 25.380889152473678 2.6700243256414025 1.0575626537458405 -3.8960483189658084
lfemur -28.051579315134205 1.1871856737818915 -20.06261365910187
ltibia 33.73938747055124
lfoot 0.1831557981315063 -10.481512115992262
ltoes -5.208504917423014
rfemur 1.5925668247813576 7.015464411921995 32.18693749318891
rtibia 40.52917084529589
rfoot 7.559575575589945 -4.864968220883792
rtoes 2.265210075931054
lowerback 11.95801563126488 2.076893055401623 5.128262474514683
upperback -1.3892939126251589 4.23691867832454 1.2758058971105917
thorax -8.095229433745681 1.583578555771571 -1.8885855776797658
lowerneck -18.8549229719089 -4.420224964237603 -1.7142013665691809
upperneck 9.960050070438282 -5.926375642302054 3.5858791931196112
head 6.329252661198847 -2.7622184977303714 0.7396650874222042
lclavicle 4.2874894013840705e-15 5.758947334063212e-17
lhumerus -53.76445693887208 -8.883596262816393 96.9095421786459
lradius 107.9287322658442
lwrist 28.404710970255152
lhand -29.82601392541112 3.2084102141097723
lfingers 7.125019999999998
lthumb -3.04671777187842 32.88294900295068
rclavicle 4.287456057901627e-15 5.75655391779199e-17
rhumerus -35.096586635774614 17.473490745235697 -97.66071787952829
rradius 103.83518322737625
rwrist -9.412366591446805
rhand -20.482965140883067 36.61840292807692
rfingers 7.125019999999998
rthumb 5.930712086026463 6.716354713818766
56
root 0.6655834287188496 18.332947556497256 26.71416274458481 2.7333706077233 1.4464984600985402 -3.74294941003968
lfemur -27.762587543053357 0.7658110986085566 -20.308714304674286
ltibia 32.099685358014455
lfoot 0.11239378823232671 -11.219361456793914
ltoes -4.647639359058858
rfemur 1.0797364414533526 6.939850898370726 32.090763583482456
rtibia 47.89174392724901
rfoot 8.284113736253522 -4.838969542167933
rtoes 2.168809186193757
lowerback 11.759334392787821 2.080229663911469 4.838553191642049
upperback -1.3038913180724827 4.144170065865181 1.2135755959218766
thorax -8.129865900507316 1.5117165506932433 -1.9606162040030015
lowerneck -18.970677995700665 -4.462649493311345 -1.7459857857446908
upperneck 9.847386776382622 -5.833577572552789 3.6627725788392618
head 6.321368513173954 -2.738559138792581 0.7730254750009574
lclavicle 4.2874894013840705e-15 5.758947334063212e-17
lhumerus -54.09957240009616 -9.252672023213673 96.73989965547152
lradius 107.96558686659952
lwrist 28.528531343909673
lhand -29.814521276468696 3.1399279889036324
lfingers 7.125019999999998
lthumb -3.0816663527303927 32.74442785156069
rclavicle 4.287456057901627e-15 5.756553917791995e-17
rhumerus -35.64810319776254 17.70164607579249 -98.00031023704597
rradius 103.5066197813984
rwrist -9.476069537862159
rhand -20.452937094807844 36.68229295989444
rfingers 7.125019999999998
rthumb 5.895391595778959 6.6729948037170645
57
root 0.6662732242026237 18.34974640159602 27.41893964751884 2.6703723297309727 1.674184928112223 -3.694537122557549
lfemur -24.167754404223114 0.9139111502980577 -20.109620329028346
ltibia 31.800898962809818
lfoot 0.9910074742678812 -11.420949918163307
ltoes -3.3067307261285954
rfemur 0.7793499154756525 6.765044231776349 31.889173458889125
rtibia 56.2058464199257
rfoot 8.127918240707366 -4.8086042510496565
rtoes 2.0534904006582435
lowerback 11.709900336158297 2.059352214688494 4.498553093641057
upperback -1.1589308672350995 3.963808468731988 1.1646365091467747
thorax -8.085051484180065 1.52413710209097 -1.725172358083706
lowerneck -19.066731797089584 -4.48730881159098 -1.759794412042515
upperneck 9.725400472976835 -5.766433204809926 3.704169564510233
head 6.278016986572431 -2.727019351830351 0.8002168103385678
lclavicle 4.2874894013840705e-15 5.758947334063212e-17
lhumerus -54.21745385420739 -9.485292021641946 96.69810917300757
lradius 107.99275540055098
lwrist 28.59837741473073
lhand -29.730612832597377 3.084002197890559
lfingers 7.125019999999998
lthumb -2.997213210229323 32.805345343605886
rclavicle 4.287456057901627e-15 5.756553917791969e-17
rhumerus -36.13878958128239 17.86252651921036 -98.36297003289089
rradius 103.2022710334999
rwrist -9.505753603264361
rhand -20.49482061430929 36.66417600683683
rfingers 7.125019999999998
rthumb 5.983043113249375 6.758606808315329
58
root 0.64330766008422 18.309118416470053 27.649585979850123 2.384921117751998 1.8460024279802285 -3.5856463647244023
lfemur -23.110475933782325 0.8068938254948262 -20.616410521108897
ltibia 32.893978360036066
lfoot 1.816837026534602 -10.777865037355449
ltoes -1.824132712770667
rfemur -0.671476235569223 6.118221570730272 31.252032017625964
rtibia 65.57744167393066
rfoot 6.8819431387589765 -5.256928576731958
rtoes 1.9930726936380891
lowerback 11.774124261765134 2.0113749932739178 4.074817892884111
upperback -1.000058560440666 3.659606480409079 1.0961630610432216
thorax -8.109889730855294 1.4853596072943949 -1.4960981188078375
lowerneck -19.12064134542896 -4.482052455498245 -1.7656434262358118
upperneck 9.652437552413021 -5.7168853351121385 3.73532780367947
head 6.27872474663319 -2.7029384502062945 0.8302480845391572
lclavicle 4.2874894013840705e-15 5.758947334063212e-17
lhumerus -54.145210529271246 -9.897631430617526 96.68985589098281
lradius 108.08912096492627
lwrist 28.468567834846876
lhand -29.74578970812265 2.893897930192926
lfingers 7.125019999999998
lthumb -3.074941022203975 32.61936432417339
rclavicle 4.287456057901627e-15 5.756553917791965e-17
rhumerus -36.684965807191006 17.885337492267602 -98.7402001944791
rradius 102.97803321979697
rwrist -9.550111287283306
rhand -20.484264477520927 36.65061804564007
rfingers 7.125019999999998
rthumb 5.960550279191003 6.734147941676689
